<?xml version="1.0" encoding="UTF-8" standalone="no"?>
<svg xmlns:dc="http://purl.org/dc/elements/1.1/" xmlns:cc="http://creativecommons.org/ns#" xmlns:rdf="http://www.w3.org/1999/02/22-rdf-syntax-ns#" xmlns:svg="http://www.w3.org/2000/svg" xmlns="http://www.w3.org/2000/svg" xml:space="preserve" enable-background="new 0 0 41.8 31.3" viewBox="0 0 41.8 31.3" height="31.3px" width="41.8px" y="0px" x="0px" id="Layer_1" version="1.0" style="&#10;"><defs id="defs10"/><g id="XMLID_54_"><path d="M34.2,29.8l7.5-18c0.5-1.2-0.8-2.4-1.9-1.8c-2.1,1-4.8,1.9-7.7,1.9c-3,0-5.7-0.9-7.8-1.9   c-1.2-0.6-2.4,0.6-1.9,1.8l7.5,18C30.5,31.8,33.4,31.8,34.2,29.8z" fill="#1b0558" id="XMLID_58_"/><path d="M7.6,11.3l-7.5,18c-0.5,1.2,0.8,2.4,1.9,1.8c2.1-1,4.8-1.9,7.7-1.9c3,0,5.7,0.9,7.8,1.9   c1.2,0.6,2.4-0.6,1.9-1.8l-7.5-18C11.2,9.3,8.4,9.3,7.6,11.3z" fill="#603fc2" id="XMLID_57_"/><circle r="3.7" cy="3.7" cx="32" fill="#1b0558" id="XMLID_56_"/><circle r="3.7" cy="3.7" cx="9.8" fill="#603fc2" id="XMLID_55_"/></g></svg>
